<svg width="194" height="193" viewBox="0 0 194 193" fill="none" xmlns="http://www.w3.org/2000/svg">
<path d="M145.76 0.919985C171.98 0.919985 193.83 25.07 193.83 56.35C193.83 90.39 166.46 114.77 149.21 131.33C128.28 151.34 105.97 178.71 97.46 192.51C97.23 192.97 96.77 192.97 96.54 192.51C88.03 178.71 65.72 151.34 44.79 131.33C27.54 114.77 0.170001 90.16 0.170001 56.35C0.170001 25.07 22.02 0.919985 48.24 0.919985C69.86 0.919985 88.95 12.19 95.85 37.72C96.08 38.41 96.31 39.33 97 39.33C97.69 39.33 97.92 38.41 98.15 37.72C104.82 12.19 124.14 0.919985 145.76 0.919985Z" fill="#FF0004"/>
</svg>
