<svg width="1052" height="44" viewBox="0 0 1052 44" fill="none" xmlns="http://www.w3.org/2000/svg">
<path d="M35.3756 0.629834V43.326H29.6242V21.9779H25.6297V41.2376H20.0275V1.37569H25.6297V17.1381H29.6242V0.629834H35.3756ZM0.303738 32.9006V5.37017H6.30374V27.6796C9.73468 27.5801 13.4971 27.2818 17.6076 26.4862L18.2043 31.6409C12.5192 32.6354 7.62971 32.9171 3.20429 32.9006H0.303738ZM86.8451 0.629834V43.4254H80.7954V0.629834H86.8451ZM52.3865 18.8287C52.37 9.54696 57.1434 3.64641 63.6738 3.64641C70.1213 3.64641 74.8948 9.54696 74.9114 18.8287C74.8948 28.2099 70.1213 34.0773 63.6738 34.0773C57.1434 34.0773 52.37 28.2099 52.3865 18.8287ZM58.1711 18.8287C58.1379 25.2099 60.3589 28.6575 63.6738 28.6575C66.9224 28.6575 69.1269 25.2099 69.1269 18.8287C69.1269 12.5138 66.9224 9.04972 63.6738 9.04972C60.3589 9.04972 58.1379 12.5138 58.1711 18.8287ZM104.097 3.64641C110.611 3.64641 115.318 9.54696 115.352 18.8287C115.318 28.2099 110.611 34.0773 104.097 34.0773C97.567 34.0773 92.8101 28.2099 92.8433 18.8287C92.8101 9.54696 97.567 3.64641 104.097 3.64641ZM98.6278 18.8287C98.6112 25.2099 100.832 28.6575 104.097 28.6575C107.445 28.6575 109.6 25.2099 109.617 18.8287C109.6 12.5138 107.445 9.04972 104.097 9.04972C100.832 9.04972 98.6112 12.5138 98.6278 18.8287ZM120.291 43.326V0.629834H126.274V10.5746H132.307V15.5635H126.274V23.1547H132.307V28.011H126.274V43.326H120.291ZM169.946 0.629834V43.326H163.897V0.629834H169.946ZM134.245 31.2431C145.25 26.0221 150.107 19.2928 151.068 9.81215H136.532V5.12155H157.167C157.151 18.0497 152.609 28.8066 137.361 36L134.245 31.2431ZM214.563 19.7735V24.2155H175.547V19.7735H214.563ZM180.005 30.4807V26.337H209.906V36.4144H185.989V38.8508H211.149V42.9282H180.039V32.6188H203.972V30.4807H180.005ZM180.337 5.48619V1.42541H209.856V11.4365H186.353V13.7238H210.586V17.768H180.403V7.64088H203.856V5.48619H180.337ZM250.503 13.3757V17.3039H267.11V22.0608H228.094V17.3039H244.569V13.3757H250.503ZM229.784 11.337C237.442 10.9227 241.817 8.68508 243.077 6.23204H231.674V1.70718H263.547V6.23204H252.027C253.254 8.71823 257.547 10.9227 265.353 11.337L263.464 15.779C255.243 15.2155 249.757 12.5967 247.569 8.76795C245.381 12.5801 239.895 15.2155 231.69 15.779L229.784 11.337ZM231.641 30.895V26.4365H244.536V23.2707H250.536V26.4365H263.431V30.895H231.641ZM234.409 37.7901C234.409 34.1271 239.132 32.1547 247.486 32.1381C255.757 32.1547 260.646 34.1271 260.663 37.7901C260.646 41.5028 255.757 43.4586 247.486 43.4586C239.132 43.4586 234.409 41.5028 234.409 37.7901ZM240.574 37.7901C240.558 38.9669 242.928 39.5304 247.486 39.4972C252.143 39.5304 254.398 38.9669 254.414 37.7901C254.398 36.5635 252.143 36.1326 247.486 36.116C242.928 36.1326 240.558 36.5635 240.574 37.7901ZM281.097 3.64641C287.611 3.64641 292.318 9.54696 292.352 18.8287C292.318 28.2099 287.611 34.0773 281.097 34.0773C274.567 34.0773 269.81 28.2099 269.843 18.8287C269.81 9.54696 274.567 3.64641 281.097 3.64641ZM275.628 18.8287C275.611 25.2099 277.832 28.6575 281.097 28.6575C284.445 28.6575 286.6 25.2099 286.617 18.8287C286.6 12.5138 284.445 9.04972 281.097 9.04972C277.832 9.04972 275.611 12.5138 275.628 18.8287ZM297.291 43.326V0.629834H303.274V16.7403H309.573V21.7293H303.274V43.326H297.291ZM331.681 7.16022V11.9171H311.029V7.16022H318.488V1.83978H324.372V7.16022H331.681ZM312.057 23.9337C312.04 18.0331 316.018 13.8398 321.455 13.8398C326.908 13.8398 330.803 18.0331 330.819 23.9337C330.803 29.9171 326.908 34.1271 321.455 34.1271C316.018 34.1271 312.04 29.9171 312.057 23.9337ZM317.311 23.9337C317.295 27.1989 318.985 29.0718 321.455 29.0552C323.858 29.0718 325.549 27.1989 325.565 23.9337C325.549 20.7348 323.858 18.7956 321.455 18.7956C318.985 18.7956 317.295 20.7348 317.311 23.9337ZM333.256 41.4862V1.47514H338.858V18.0166H342.322V0.629834H348.007V43.326H342.322V22.7901H338.858V41.4862H333.256ZM391.514 24.1823V28.9724H374.889V43.326H368.972V28.9724H352.597V24.1823H391.514ZM354.503 17.0221C363.188 15.9779 367.928 11.7514 368.558 7.57458H356.11V2.90055H388.016V7.57458H375.586C376.149 11.7514 380.873 15.9779 389.657 17.0221L387.486 21.7127C379.994 20.7017 374.641 17.5028 372.055 13.1271C369.469 17.5028 364.132 20.7017 356.707 21.7127L354.503 17.0221ZM428.722 12.2983V16.9889H398.921V2.15469H404.871V12.2983H428.722ZM394.031 26.2376V21.547H433.048V26.2376H394.031ZM398.523 42.3812V29.7348H404.506V37.5746H428.987V42.3812H398.523ZM462.324 10.3094C462.291 17.9503 465.556 25.6575 472.401 28.9724L468.788 33.7293C464.23 31.4751 461.131 27.2652 459.357 22.1271C457.501 27.6464 454.202 32.1547 449.363 34.558L445.7 29.7017C452.91 26.3867 456.324 18.232 456.341 10.3094V3.92818H462.324V10.3094ZM474.291 43.326V0.629834H480.274V17.0884H486.573V22.1436H480.274V43.326H474.291ZM521.957 0.69613V10.7735H527.725V15.7459H521.957V26.0221H515.957V0.69613H521.957ZM489.587 7.55801V2.76795H509.212V15.7459H495.62V19.5746C502.648 19.558 507.438 19.326 512.858 18.3978L513.488 23.0884C507.388 24.2652 501.902 24.4807 493.234 24.4807H489.654V11.2541H503.377V7.55801H489.587ZM494.013 42.8453V27.7956H521.957V42.8453H494.013ZM499.88 38.0552H516.09V32.4696H499.88V38.0552ZM568.58 17.3204V22.011H529.597V17.3204H568.58ZM534.088 29.0221V24.4972H563.757V35.6519H539.989V38.3204H564.867V42.9448H534.121V31.3923H557.856V29.0221H534.088ZM534.453 14.9503V1.52486H563.608V6.26519H540.42V10.2431H563.939V14.9503H534.453ZM590.506 1.25967C600.335 1.25967 606.004 3.82873 606.02 8.51934C606.004 13.2928 600.335 15.8453 590.506 15.8453C580.661 15.8453 574.959 13.2928 574.976 8.51934C574.959 3.82873 580.661 1.25967 590.506 1.25967ZM571.081 22.6077V17.8674H609.998V22.6077H571.081ZM575.573 29.453V25.0608H605.241V35.9503H581.473V38.5193H606.352V43.0276H575.606V31.7735H599.341V29.453H575.573ZM581.241 8.51934C581.208 10.6243 584.258 11.4365 590.506 11.453C596.838 11.4365 599.854 10.6243 599.854 8.51934C599.854 6.64641 596.838 5.61878 590.506 5.63536C584.258 5.61878 581.208 6.64641 581.241 8.51934ZM645.108 4.40884V9.28177H631.666V28.2099C637.899 28.1602 642.374 27.8785 647.379 26.9503L647.992 31.7735C642.142 32.9171 636.97 33.1326 629.114 33.116H625.65V4.40884H645.108ZM643.003 20.2873V15.4144H653.694V0.629834H659.661V43.4254H653.694V20.2873H643.003ZM710.02 0.629834V9.59668H715.755V14.5193H710.02V21.9448H704.02V0.629834H710.02ZM677.434 21.0994V3.31492H697.921V21.0994H677.434ZM680.003 42.1989V25.4917H685.838V37.3094C688.191 37.1602 690.412 36.7956 692.617 36.0829L693.479 40.7238C689.865 42.0331 686.434 42.1989 682.357 42.1989H680.003ZM683.351 16.3923H692.02V7.98895H683.351V16.3923ZM692.003 30.2155V25.9392H699.893V22.8398H705.711V25.9392H713.484V30.2155H692.003ZM694.473 37.3094C694.44 33.5967 697.788 31.326 702.711 31.3094C707.584 31.326 710.965 33.5967 710.998 37.3094C710.965 40.9724 707.584 43.2762 702.711 43.2597C697.788 43.2762 694.44 40.9724 694.473 37.3094ZM699.777 37.3094C699.76 38.6354 701.02 39.2983 702.711 39.2818C704.401 39.2983 705.628 38.6354 705.644 37.3094C705.628 36 704.401 35.3702 702.711 35.337C701.02 35.3702 699.76 36 699.777 37.3094ZM753.361 0.629834V43.4254H747.311V0.629834H753.361ZM718.902 18.8287C718.886 9.54696 723.659 3.64641 730.189 3.64641C736.637 3.64641 741.41 9.54696 741.427 18.8287C741.41 28.2099 736.637 34.0773 730.189 34.0773C723.659 34.0773 718.886 28.2099 718.902 18.8287ZM724.687 18.8287C724.654 25.2099 726.875 28.6575 730.189 28.6575C733.438 28.6575 735.642 25.2099 735.642 18.8287C735.642 12.5138 733.438 9.04972 730.189 9.04972C726.875 9.04972 724.654 12.5138 724.687 18.8287ZM791.952 4.19337V24.6796H771.466V4.19337H791.952ZM776.372 42.5801V28.7072H782.339V37.7569H805.576V42.5801H776.372ZM777.383 19.9724H786.051V8.95028H777.383V19.9724ZM798.051 31.7901V0.662982H804.051V12.9447H809.786V17.884H804.051V31.7901H798.051ZM845.536 0.629834V8.63536H851.27V13.558H845.536V21.7459H839.536V0.629834H845.536ZM813.397 20.5525V2.51934H819.397V15.5967C824.519 15.4972 830.072 15.0497 835.972 13.9227L836.652 18.7956C829.641 20.2044 823.094 20.5525 817.044 20.5525H813.397ZM817.226 28.1602V23.5028H845.536V35.2376H823.276V38.0552H846.762V42.8453H817.293V30.7459H839.486V28.1602H817.226ZM886.861 3.9779C886.861 9.01657 892 14.5856 901.762 15.7956L899.425 20.6188C891.966 19.558 886.497 16.0939 883.712 11.4696C880.928 16.0939 875.491 19.558 868.099 20.6188L865.745 15.7956C875.442 14.5856 880.563 9.01657 880.58 3.9779V1.90608H886.861V3.9779ZM864.237 28.7238V23.8508H903.154V28.7238H886.53V43.326H880.613V28.7238H864.237ZM932.298 28.011C932.298 31.4586 933.74 35.0055 937.204 37.3425C940.734 34.8564 942.276 31.1934 942.292 28.011V26.5525H948.176V28.011C948.143 32.4862 950.513 36.5967 956.182 38.3536L953.281 42.6796C949.204 41.3204 946.535 38.7182 945.044 35.4199C943.651 38.7182 941.165 41.5691 937.353 43.0608C933.342 41.6188 930.839 38.8508 929.447 35.5691C927.922 38.7514 925.303 41.3204 921.392 42.6796L918.458 38.3536C924.06 36.4144 926.447 32.1878 926.48 28.011V26.5525H932.298V28.011ZM917.43 13.1105C917.414 7.07735 922.436 2.85083 929.099 2.85083C935.745 2.85083 940.751 7.07735 940.751 13.1105C940.751 19.0608 935.745 23.3204 929.099 23.3039C922.436 23.3204 917.414 19.0608 917.43 13.1105ZM923.281 13.1105C923.248 16.3425 925.685 18.3481 929.099 18.3481C932.43 18.3481 934.85 16.3425 934.85 13.1105C934.85 9.82873 932.43 7.87293 929.099 7.87293C925.685 7.87293 923.248 9.82873 923.281 13.1105ZM946.486 24.7956V0.69613H952.486V24.7956H946.486ZM992.611 3.14917V6.9779C992.594 10.9558 992.594 15.3149 991.5 21.2983H997.186V26.1215H980.545V43.3591H974.512V26.1215H958.268V21.2983H985.467C986.545 15.779 986.644 11.6022 986.661 7.90608H962.727V3.14917H992.611ZM1039.43 16.8232V21.7127H1033.4V43.2265H1027.42V0.629834H1033.4V16.8232H1039.43ZM1001.1 32.8011V4.72375H1007.06V27.8619C1012.52 27.7624 1018.37 27.2652 1024.53 26.0221L1025.16 31.011C1018 32.4365 1011.09 32.8177 1004.79 32.8011H1001.1ZM1050.95 5.05525L1050.32 28.8398H1044.32L1043.69 5.05525H1050.95ZM1043.39 35.4862C1043.36 33.3315 1045.17 31.5746 1047.34 31.5746C1049.43 31.5746 1051.25 33.3315 1051.26 35.4862C1051.25 37.6575 1049.43 39.4144 1047.34 39.4144C1045.17 39.4144 1043.36 37.6575 1043.39 35.4862Z" fill="black"/>
</svg>
