<svg width="875" height="44" viewBox="0 0 875 44" fill="none" xmlns="http://www.w3.org/2000/svg">
<path d="M35.8756 0.629834V43.326H30.1242V21.9779H26.1297V41.2376H20.5275V1.37569H26.1297V17.1381H30.1242V0.629834H35.8756ZM0.803738 32.9006V5.37017H6.80374V27.6796C10.2347 27.5801 13.9971 27.2818 18.1076 26.4862L18.7043 31.6409C13.0192 32.6354 8.12971 32.9171 3.70429 32.9006H0.803738ZM87.3451 0.629834V43.4254H81.2954V0.629834H87.3451ZM52.8865 18.8287C52.87 9.54696 57.6434 3.64641 64.1738 3.64641C70.6213 3.64641 75.3948 9.54696 75.4114 18.8287C75.3948 28.2099 70.6213 34.0773 64.1738 34.0773C57.6434 34.0773 52.87 28.2099 52.8865 18.8287ZM58.6711 18.8287C58.6379 25.2099 60.8589 28.6575 64.1738 28.6575C67.4224 28.6575 69.6269 25.2099 69.6269 18.8287C69.6269 12.5138 67.4224 9.04972 64.1738 9.04972C60.8589 9.04972 58.6379 12.5138 58.6711 18.8287ZM104.597 3.64641C111.111 3.64641 115.818 9.54696 115.852 18.8287C115.818 28.2099 111.111 34.0773 104.597 34.0773C98.067 34.0773 93.3101 28.2099 93.3433 18.8287C93.3101 9.54696 98.067 3.64641 104.597 3.64641ZM99.1278 18.8287C99.1112 25.2099 101.332 28.6575 104.597 28.6575C107.945 28.6575 110.1 25.2099 110.117 18.8287C110.1 12.5138 107.945 9.04972 104.597 9.04972C101.332 9.04972 99.1112 12.5138 99.1278 18.8287ZM120.791 43.326V0.629834H126.774V10.5746H132.807V15.5635H126.774V23.1547H132.807V28.011H126.774V43.326H120.791ZM170.446 0.629834V43.326H164.397V0.629834H170.446ZM134.745 31.2431C145.75 26.0221 150.607 19.2928 151.568 9.81215H137.032V5.12155H157.667C157.651 18.0497 153.109 28.8066 137.861 36L134.745 31.2431ZM215.063 19.7735V24.2155H176.047V19.7735H215.063ZM180.505 30.4807V26.337H210.406V36.4144H186.489V38.8508H211.649V42.9282H180.539V32.6188H204.472V30.4807H180.505ZM180.837 5.48619V1.42541H210.356V11.4365H186.853V13.7238H211.086V17.768H180.903V7.64088H204.356V5.48619H180.837ZM250.124 4.40884V9.28177H236.682V28.2099C242.914 28.1602 247.389 27.8785 252.395 26.9503L253.008 31.7735C247.157 32.9171 241.986 33.1326 234.13 33.116H230.666V4.40884H250.124ZM248.019 20.2873V15.4144H258.71V0.629834H264.677V43.4254H258.71V20.2873H248.019ZM315.036 0.629834V9.59668H320.77V14.5193H315.036V21.9448H309.036V0.629834H315.036ZM282.45 21.0994V3.31492H302.936V21.0994H282.45ZM285.019 42.1989V25.4917H290.853V37.3094C293.207 37.1602 295.428 36.7956 297.632 36.0829L298.494 40.7238C294.881 42.0331 291.45 42.1989 287.373 42.1989H285.019ZM288.367 16.3923H297.036V7.98895H288.367V16.3923ZM297.019 30.2155V25.9392H304.909V22.8398H310.726V25.9392H318.5V30.2155H297.019ZM299.489 37.3094C299.456 33.5967 302.804 31.326 307.726 31.3094C312.599 31.326 315.98 33.5967 316.014 37.3094C315.98 40.9724 312.599 43.2762 307.726 43.2597C302.804 43.2762 299.456 40.9724 299.489 37.3094ZM304.793 37.3094C304.776 38.6354 306.036 39.2983 307.726 39.2818C309.417 39.2983 310.643 38.6354 310.66 37.3094C310.643 36 309.417 35.3702 307.726 35.337C306.036 35.3702 304.776 36 304.793 37.3094ZM361.592 22.4586V27.2155H322.675V22.4586H361.592ZM326.57 10.674C326.553 5.23757 332.719 1.93922 342.1 1.93922C351.448 1.93922 357.597 5.23757 357.614 10.674C357.597 16.1436 351.448 19.5083 342.1 19.5083C332.719 19.5083 326.553 16.1436 326.57 10.674ZM327.365 42.5801V30.0829H333.365V37.7569H357.15V42.5801H327.365ZM332.785 10.674C332.752 13.3425 336.183 14.6685 342.1 14.6519C348.001 14.6685 351.448 13.3425 351.448 10.674C351.448 8.10497 348.001 6.69613 342.1 6.67956C336.183 6.69613 332.752 8.10497 332.785 10.674ZM390.918 10.3094C390.885 17.9503 394.15 25.6575 400.995 28.9724L397.382 33.7293C392.824 31.4751 389.724 27.2652 387.951 22.1271C386.094 27.6464 382.796 32.1547 377.956 34.558L374.293 29.7017C381.503 26.3867 384.918 18.232 384.934 10.3094V3.92818H390.918V10.3094ZM402.885 43.326V0.629834H408.868V17.0884H415.166V22.1436H408.868V43.326H402.885ZM450.551 0.69613V10.7735H456.319V15.7459H450.551V26.0221H444.551V0.69613H450.551ZM418.181 7.55801V2.76795H437.805V15.7459H424.214V19.5746C431.242 19.558 436.032 19.326 441.452 18.3978L442.082 23.0884C435.982 24.2652 430.496 24.4807 421.827 24.4807H418.247V11.2541H431.971V7.55801H418.181ZM422.606 42.8453V27.7956H450.551V42.8453H422.606ZM428.474 38.0552H444.684V32.4696H428.474V38.0552ZM497.174 17.3204V22.011H458.19V17.3204H497.174ZM462.682 29.0221V24.4972H492.351V35.6519H468.583V38.3204H493.461V42.9448H462.715V31.3923H486.45V29.0221H462.682ZM463.047 14.9503V1.52486H492.201V6.26519H469.014V10.2431H492.533V14.9503H463.047ZM536.636 0.629834V43.326H530.918V0.629834H536.636ZM500.039 19.1105C500.023 9.58011 503.686 3.69613 509.305 3.69613C514.443 3.69613 517.973 8.48619 518.619 16.4254H522.1V1.29282H527.752V41.3536H522.1V21.1989H518.669C518.155 29.5691 514.575 34.6409 509.305 34.6243C503.686 34.6409 500.023 28.7238 500.039 19.1105ZM505.542 19.1105C505.509 25.6906 506.918 28.9061 509.305 28.8895C511.774 28.9061 513.233 25.6906 513.233 19.1105C513.233 12.5967 511.774 9.33149 509.305 9.34807C506.918 9.33149 505.509 12.5967 505.542 19.1105ZM578.12 0.629834V43.326H572.485V0.629834H578.12ZM540.629 30.232C549.247 25.1105 553.06 18.895 553.855 10.5249H542.982V5.71823H559.805C559.789 9.77901 559.358 13.5912 558.33 17.105H563.435V1.60773H569.038V41.4199H563.435V21.8453H556.474C554.038 26.7182 550.076 30.9448 544.01 34.4254L540.629 30.232ZM629.656 0.69613V31.8398H623.689V16.558H616.711V11.7348H623.689V0.69613H629.656ZM593.457 22.2431C600.502 20.0221 603.7 14.453 603.717 9V8.35359H595.164V3.56354H618.303V8.35359H609.8V9.03315C609.8 13.9889 612.833 19.2762 619.612 21.4807L616.662 26.221C611.938 24.6796 608.689 21.5635 606.833 17.7182C604.944 21.9779 601.546 25.4088 596.524 27.0829L593.457 22.2431ZM601.347 42.5801V29.1215H607.314V37.7569H630.667V42.5801H601.347ZM669.036 0.58011V9.82873H674.804V14.6188H669.036V23.6851H663.036V0.58011H669.036ZM635.174 8.38674V3.82873H644.87V0.348063H650.837V3.82873H660.5V8.38674H635.174ZM637.262 16.4088C637.246 12.1492 641.472 9.43094 647.853 9.43094C654.218 9.43094 658.345 12.1492 658.345 16.4088C658.345 20.768 654.218 23.3702 647.853 23.3867C641.472 23.3702 637.246 20.768 637.262 16.4088ZM640.726 29.7017V25.4088H669.036V36.1657H646.693V38.6188H670.262V43.0276H640.793V32.105H663.069V29.7017H640.726ZM643.08 16.4088C643.08 18.232 644.886 19.0939 647.853 19.1105C650.804 19.0939 652.66 18.232 652.676 16.4088C652.66 14.6188 650.804 13.6243 647.853 13.6243C644.886 13.6243 643.08 14.6188 643.08 16.4088ZM710.361 3.9779C710.361 9.01657 715.5 14.5856 725.262 15.7956L722.925 20.6188C715.466 19.558 709.997 16.0939 707.212 11.4696C704.428 16.0939 698.991 19.558 691.599 20.6188L689.245 15.7956C698.942 14.5856 704.063 9.01657 704.08 3.9779V1.90608H710.361V3.9779ZM687.737 28.7238V23.8508H726.654V28.7238H710.03V43.326H704.113V28.7238H687.737ZM755.798 28.011C755.798 31.4586 757.24 35.0055 760.704 37.3425C764.234 34.8564 765.776 31.1934 765.792 28.011V26.5525H771.676V28.011C771.643 32.4862 774.013 36.5967 779.682 38.3536L776.781 42.6796C772.704 41.3204 770.035 38.7182 768.544 35.4199C767.151 38.7182 764.665 41.5691 760.853 43.0608C756.842 41.6188 754.339 38.8508 752.947 35.5691C751.422 38.7514 748.803 41.3204 744.892 42.6796L741.958 38.3536C747.56 36.4144 749.947 32.1878 749.98 28.011V26.5525H755.798V28.011ZM740.93 13.1105C740.914 7.07735 745.936 2.85083 752.599 2.85083C759.245 2.85083 764.251 7.07735 764.251 13.1105C764.251 19.0608 759.245 23.3204 752.599 23.3039C745.936 23.3204 740.914 19.0608 740.93 13.1105ZM746.781 13.1105C746.748 16.3425 749.185 18.3481 752.599 18.3481C755.93 18.3481 758.35 16.3425 758.35 13.1105C758.35 9.82873 755.93 7.87293 752.599 7.87293C749.185 7.87293 746.748 9.82873 746.781 13.1105ZM769.986 24.7956V0.69613H775.986V24.7956H769.986ZM816.111 3.14917V6.9779C816.094 10.9558 816.094 15.3149 815 21.2983H820.686V26.1215H804.045V43.3591H798.012V26.1215H781.768V21.2983H808.967C810.045 15.779 810.144 11.6022 810.161 7.90608H786.227V3.14917H816.111ZM862.932 16.8232V21.7127H856.899V43.2265H850.916V0.629834H856.899V16.8232H862.932ZM824.595 32.8011V4.72375H830.562V27.8619C836.015 27.7624 841.866 27.2652 848.032 26.0221L848.662 31.011C841.501 32.4365 834.59 32.8177 828.291 32.8011H824.595ZM874.45 5.05525L873.82 28.8398H867.82L867.19 5.05525H874.45ZM866.892 35.4862C866.859 33.3315 868.665 31.5746 870.837 31.5746C872.925 31.5746 874.748 33.3315 874.765 35.4862C874.748 37.6575 872.925 39.4144 870.837 39.4144C868.665 39.4144 866.859 37.6575 866.892 35.4862Z" fill="black"/>
</svg>
